<mxfile host="65bd71144e">
    <diagram id="58OfIpKQuJ5hrmJoID61" name="第 1 页">
        <mxGraphModel dx="887" dy="428" grid="1" gridSize="10" guides="1" tooltips="1" connect="1" arrows="1" fold="1" page="1" pageScale="1" pageWidth="1200" pageHeight="1920" math="0" shadow="0">
            <root>
                <mxCell id="0"/>
                <mxCell id="1" parent="0"/>
                <mxCell id="3" value="管理" style="rounded=0;whiteSpace=wrap;html=1;" parent="1" vertex="1">
                    <mxGeometry x="100" y="100" width="120" height="60" as="geometry"/>
                </mxCell>
                <mxCell id="4" value="暴露能力" style="rounded=0;whiteSpace=wrap;html=1;" parent="1" vertex="1">
                    <mxGeometry x="100" y="190" width="120" height="80" as="geometry"/>
                </mxCell>
                <mxCell id="5" value="隔离风险" style="rounded=0;whiteSpace=wrap;html=1;" parent="1" vertex="1">
                    <mxGeometry x="100" y="290" width="120" height="60" as="geometry"/>
                </mxCell>
                <mxCell id="6" value="上传" style="rounded=0;whiteSpace=wrap;html=1;" parent="1" vertex="1">
                    <mxGeometry x="240" y="100" width="120" height="60" as="geometry"/>
                </mxCell>
                <mxCell id="7" value="加载" style="rounded=0;whiteSpace=wrap;html=1;" parent="1" vertex="1">
                    <mxGeometry x="370" y="100" width="120" height="60" as="geometry"/>
                </mxCell>
                <mxCell id="8" value="版本" style="rounded=0;whiteSpace=wrap;html=1;" parent="1" vertex="1">
                    <mxGeometry x="500" y="100" width="120" height="60" as="geometry"/>
                </mxCell>
                <mxCell id="9" value="API划分" style="rounded=0;whiteSpace=wrap;html=1;" parent="1" vertex="1">
                    <mxGeometry x="240" y="190" width="250" height="30" as="geometry"/>
                </mxCell>
                <mxCell id="10" value="content_script" style="rounded=0;whiteSpace=wrap;html=1;" parent="1" vertex="1">
                    <mxGeometry x="240" y="230" width="120" height="40" as="geometry"/>
                </mxCell>
                <mxCell id="11" value="popup.html" style="rounded=0;whiteSpace=wrap;html=1;" parent="1" vertex="1">
                    <mxGeometry x="500" y="230" width="120" height="40" as="geometry"/>
                </mxCell>
                <mxCell id="12" value="运行环境" style="rounded=0;whiteSpace=wrap;html=1;" parent="1" vertex="1">
                    <mxGeometry x="240" y="290" width="120" height="60" as="geometry"/>
                </mxCell>
                <mxCell id="13" value="background" style="rounded=0;whiteSpace=wrap;html=1;" parent="1" vertex="1">
                    <mxGeometry x="370" y="230" width="120" height="40" as="geometry"/>
                </mxCell>
                <mxCell id="14" value="UI" style="rounded=0;whiteSpace=wrap;html=1;" parent="1" vertex="1">
                    <mxGeometry x="500" y="190" width="120" height="30" as="geometry"/>
                </mxCell>
                <mxCell id="15" value="manifest.json" style="rounded=0;whiteSpace=wrap;html=1;" parent="1" vertex="1">
                    <mxGeometry x="630" y="100" width="120" height="60" as="geometry"/>
                </mxCell>
                <mxCell id="16" value="插件内容" style="rounded=0;whiteSpace=wrap;html=1;" parent="1" vertex="1">
                    <mxGeometry x="630" y="190" width="120" height="80" as="geometry"/>
                </mxCell>
                <mxCell id="17" value="iframe" style="rounded=0;whiteSpace=wrap;html=1;" parent="1" vertex="1">
                    <mxGeometry x="630" y="280" width="120" height="70" as="geometry"/>
                </mxCell>
                <mxCell id="18" value="分层" style="text;html=1;strokeColor=none;fillColor=none;align=center;verticalAlign=middle;whiteSpace=wrap;rounded=0;" vertex="1" parent="1">
                    <mxGeometry x="130" y="60" width="60" height="30" as="geometry"/>
                </mxCell>
                <mxCell id="19" value="功能" style="text;html=1;strokeColor=none;fillColor=none;align=center;verticalAlign=middle;whiteSpace=wrap;rounded=0;" vertex="1" parent="1">
                    <mxGeometry x="380" y="60" width="60" height="30" as="geometry"/>
                </mxCell>
                <mxCell id="20" value="实现" style="text;html=1;strokeColor=none;fillColor=none;align=center;verticalAlign=middle;whiteSpace=wrap;rounded=0;" vertex="1" parent="1">
                    <mxGeometry x="660" y="60" width="60" height="30" as="geometry"/>
                </mxCell>
            </root>
        </mxGraphModel>
    </diagram>
</mxfile>